<svg xmlns="http://www.w3.org/2000/svg" class="css-86wbzz e1rzepf30" color="inherit" viewBox="0 0 24 24" height="24" width="24"><path fill="#666666" fill-rule="evenodd" d="M13 7.086l4.414 4.414-9.121 9.121c-.516.516-1.2.825-1.923.873l-.198.006H4c-.552 0-1-.448-1-1v-2.172c0-.729.266-1.43.743-1.976l.136-.145L13 7.086zm0 2.828l-7.707 7.707c-.156.157-.256.36-.284.576l-.01.131v.172c.001.552.449 1 1.001 1h.172c.22 0 .434-.073.608-.206l.099-.087 7.707-7.707L13 9.914zM14.586 5.5l1.207-1.207c1.219-1.219 3.195-1.219 4.414 0 1.172 1.172 1.217 3.044.135 4.27l-.135.144L19 9.914 14.586 5.5l1.207-1.207L14.586 5.5zm4.207.207c-.333-.333-.823-.412-1.232-.24l-.12.06 1.532 1.532c.246-.429.186-.985-.18-1.352z" clip-rule="evenodd"/> </svg>