<svg xmlns="http://www.w3.org/2000/svg" class="css-ma179n e1rzepf30" color="inherit" viewBox="0 0 24 24" height="24" width="24"><path fill="#666666" fill-rule="evenodd" d="M12 2c3.238 0 5.878 2.566 5.996 5.775L18 8v1.171c1.166.412 2 1.523 2 2.83v7c0 1.656-1.343 3-3 3H7c-1.657 0-3-1.344-3-3v-7c0-1.307.835-2.418 2-2.83V8c0-3.315 2.686-6 6-6zm5 9H7c-.552 0-1 .448-1 1v7c0 .552.448 1 1 1h10c.552 0 1-.448 1-1v-7c0-.552-.448-1-1-1zm-5 2.5c1.105 0 2 .895 2 2s-.895 2-2 2-2-.895-2-2 .895-2 2-2zm.2-9.495L12 4C9.858 4 8.109 5.684 8.005 7.8L8 8v1h8V8c0-2.142-1.684-3.89-3.8-3.995L12 4l.2.005z" clip-rule="evenodd"/> </svg>