<svg xmlns="http://www.w3.org/2000/svg" class="css-ma179n e1rzepf30" color="inherit" viewBox="0 0 24 24" height="24" width="24"><path fill="#666666" fill-rule="evenodd" d="M5 4.5h14c1.657 0 3 1.343 3 3v9c0 1.657-1.343 3-3 3H5c-1.657 0-3-1.343-3-3v-9c0-1.657 1.343-3 3-3zm0 2c-.552 0-1 .448-1 1v9c0 .552.448 1 1 1h14c.552 0 1-.448 1-1v-9c0-.552-.448-1-1-1H5zm1.486 3.857c-.474-.284-.628-.898-.343-1.372.284-.473.898-.627 1.372-.343l2.942 1.766c.95.57 2.136.57 3.086 0l2.942-1.766c.474-.284 1.088-.13 1.373.343.284.474.13 1.088-.343 1.372l-2.943 1.766c-1.583.95-3.561.95-5.144 0l-2.942-1.766z" clip-rule="evenodd"/> </svg>